<svg width="361" height="276" viewBox="0 0 361 276" fill="none" xmlns="http://www.w3.org/2000/svg">
<g filter="url(#filter0_d_2382_1837)">
<rect x="40.0803" y="8.48267" width="313" height="212.667" rx="4" transform="rotate(8 40.0803 8.48267)" fill="white" shape-rendering="crispEdges"/>
<path d="M58.0523 42.5364C57.233 42.4212 56.492 42.1568 55.8291 41.7432C55.1726 41.3248 54.62 40.7979 54.1714 40.1626C53.7292 39.5225 53.4114 38.8112 53.2181 38.0287C53.0304 37.247 52.9953 36.438 53.1128 35.6019C53.2367 34.7209 53.5077 33.9321 53.9261 33.2356C54.3444 32.539 54.864 31.9568 55.4848 31.489C56.1064 31.0156 56.7864 30.6763 57.5249 30.471C58.2689 30.2666 59.0253 30.2184 59.7941 30.3264C60.6639 30.4487 61.4716 30.7682 62.2172 31.285C62.9629 31.8018 63.5764 32.506 64.0576 33.3977L62.3725 34.0278C62.0395 33.466 61.6217 33.0182 61.1193 32.6843C60.6225 32.3513 60.0935 32.1453 59.5324 32.0664C58.988 31.9899 58.456 32.0296 57.9363 32.1855C57.4173 32.3357 56.9418 32.5836 56.5099 32.9292C56.0787 33.2692 55.7162 33.6903 55.4224 34.1926C55.1351 34.6902 54.9476 35.2504 54.8601 35.8732C54.7757 36.4737 54.8003 37.0522 54.9337 37.6089C55.0728 38.1663 55.2996 38.6703 55.614 39.1208C55.9347 39.5664 56.3234 39.9358 56.7801 40.2288C57.2424 40.5227 57.7541 40.7091 58.3152 40.7879C58.7305 40.8463 59.1383 40.8349 59.5389 40.7539C59.9394 40.6728 60.3197 40.5317 60.6799 40.3306C61.0464 40.1246 61.3776 39.865 61.6734 39.5518C61.9692 39.2386 62.2201 38.879 62.4259 38.473L59.926 38.1217L60.1436 36.5729L64.6974 37.2129C64.5903 38.0562 64.3332 38.8269 63.9261 39.525C63.5246 40.2239 63.0174 40.8193 62.4047 41.3112C61.7983 41.7982 61.122 42.1523 60.3756 42.3736C59.6292 42.5949 58.8548 42.6491 58.0523 42.5364ZM68.9322 44.0654C68.1578 43.9566 67.4788 43.658 66.895 43.1697C66.3169 42.6822 65.884 42.0777 65.5963 41.3563C65.3149 40.6301 65.2315 39.8601 65.3458 39.0464C65.4326 38.4292 65.6228 37.8694 65.9166 37.367C66.2112 36.8591 66.5776 36.4299 67.016 36.0795C67.4607 35.7243 67.9546 35.4675 68.4976 35.3092C69.0406 35.1509 69.6011 35.1124 70.1791 35.1936C70.8244 35.2843 71.3975 35.5022 71.8983 35.8472C72.4 36.1867 72.8085 36.6189 73.1238 37.1439C73.4399 37.6633 73.6448 38.2414 73.7384 38.8783C73.8328 39.5096 73.7954 40.1624 73.6262 40.8368L67.1365 39.9247C67.155 40.3222 67.246 40.6926 67.4095 41.036C67.5794 41.3746 67.8144 41.6566 68.1146 41.8819C68.4205 42.108 68.775 42.2522 69.1783 42.3146C69.6047 42.3746 70.0069 42.3224 70.3848 42.158C70.7683 41.9945 71.0987 41.7405 71.376 41.3961L73.0941 42.0581C72.6525 42.7571 72.0587 43.2974 71.3127 43.679C70.5674 44.0549 69.7739 44.1837 68.9322 44.0654ZM67.2657 38.5781L72.0467 39.25C72.0474 38.8381 71.9555 38.4532 71.7712 38.0954C71.5933 37.7328 71.3466 37.432 71.0311 37.1931C70.722 36.9494 70.3654 36.7992 69.9614 36.7424C69.563 36.6864 69.1792 36.7297 68.8101 36.8724C68.4466 37.0159 68.1293 37.2374 67.8583 37.5369C67.5938 37.8316 67.3962 38.1787 67.2657 38.5781ZM79.778 38.5684L78.0103 38.3199L77.065 44.9852L75.3142 44.7392L76.2596 38.0739L74.9212 37.8858L75.1673 36.135L76.5056 36.3231L76.8686 33.6789L78.6194 33.9249L78.2564 36.5691L80.024 36.8176L79.778 38.5684ZM85.4135 50.4503L83.6627 50.2043L85.4372 37.5783L87.188 37.8244L87.0141 39.0617C87.3554 38.6691 87.7638 38.3688 88.2394 38.161C88.7149 37.9532 89.2501 37.891 89.8449 37.9746C90.4566 38.0606 91.0128 38.2561 91.5136 38.5611C92.0199 38.8669 92.4463 39.253 92.7928 39.7194C93.14 40.1802 93.3912 40.6933 93.5464 41.2587C93.7015 41.8242 93.7361 42.4127 93.6502 43.0244C93.5642 43.636 93.3683 44.195 93.0626 44.7014C92.7568 45.2078 92.3731 45.6374 91.9115 45.9903C91.4507 46.3375 90.9347 46.5883 90.3637 46.7427C89.7983 46.8978 89.2097 46.9324 88.5981 46.8464C88.0033 46.7629 87.5059 46.5556 87.1061 46.2248C86.707 45.8883 86.3972 45.4871 86.1765 45.0212L85.4135 50.4503ZM89.5903 39.6641C89.1021 39.5955 88.6555 39.6587 88.2504 39.8535C87.8454 40.0484 87.5098 40.3388 87.2439 40.7249C86.9787 41.1054 86.8106 41.5481 86.7396 42.0531C86.6686 42.5582 86.7078 43.0329 86.857 43.4774C87.0063 43.9218 87.2487 44.2935 87.5844 44.5924C87.9201 44.8914 88.332 45.0752 88.8202 45.1438C89.3028 45.2116 89.7631 45.1533 90.201 44.9688C90.6397 44.7786 91.0089 44.4929 91.3086 44.1116C91.6082 43.7302 91.7939 43.2842 91.8657 42.7736C91.9359 42.2742 91.8795 41.7999 91.6966 41.3507C91.5193 40.9023 91.2459 40.5263 90.8766 40.2226C90.5073 39.9189 90.0785 39.7328 89.5903 39.6641ZM102.077 39.9169L103.828 40.1629L102.645 48.5802L100.885 48.333L100.99 47.103C100.682 47.5004 100.299 47.8014 99.8412 48.006C99.3833 48.2106 98.8681 48.2726 98.2957 48.1922C97.6785 48.1054 97.1138 47.9088 96.6019 47.6022C96.0907 47.29 95.6566 46.8971 95.2997 46.4235C94.9484 45.9507 94.6956 45.4288 94.5413 44.8577C94.3877 44.2811 94.3547 43.6813 94.4422 43.0584C94.5266 42.458 94.7181 41.9098 95.0167 41.4139C95.3161 40.9123 95.693 40.4903 96.1474 40.1479C96.6018 39.8055 97.1057 39.5587 97.6591 39.4076C98.2189 39.2517 98.7991 39.2159 99.3995 39.3003C100.011 39.3862 100.53 39.6022 100.956 39.9483C101.389 40.2895 101.729 40.6978 101.977 41.1733L102.077 39.9169ZM98.4914 46.4944C98.9852 46.5638 99.4343 46.5039 99.8385 46.3146C100.244 46.1198 100.576 45.8289 100.837 45.4421C101.103 45.056 101.271 44.6104 101.342 44.1054C101.414 43.5948 101.375 43.1172 101.226 42.6728C101.077 42.2283 100.834 41.8595 100.497 41.5661C100.167 41.2679 99.7553 41.0842 99.2615 41.0148C98.7733 40.9461 98.3099 41.0069 97.8711 41.197C97.4324 41.3872 97.066 41.6733 96.772 42.0554C96.4779 42.4375 96.2954 42.8811 96.2244 43.3862C96.1527 43.8968 96.2083 44.3767 96.3912 44.8259C96.5805 45.2702 96.8571 45.6438 97.2208 45.9467C97.5909 46.2448 98.0144 46.4274 98.4914 46.4944ZM105.438 40.3893L107.189 40.6353L106.006 49.0526L104.255 48.8066L105.438 40.3893ZM106.502 39.2942C106.233 39.2563 106.02 39.1378 105.865 38.9386C105.71 38.7394 105.651 38.5079 105.688 38.2442C105.724 37.9861 105.845 37.7826 106.049 37.6339C106.253 37.4796 106.488 37.421 106.751 37.458C107.01 37.4943 107.216 37.6148 107.37 37.8197C107.525 38.0188 107.585 38.2475 107.548 38.5056C107.511 38.7694 107.391 38.9756 107.187 39.1243C106.988 39.2738 106.76 39.3305 106.502 39.2942ZM116.134 37.6008L117.885 37.8469L116.111 50.4728L114.36 50.2267L114.534 48.9894C114.197 49.3884 113.789 49.6915 113.307 49.8985C112.827 50.1 112.289 50.1589 111.695 50.0753C111.083 49.9893 110.527 49.7938 110.026 49.4889C109.525 49.1839 109.098 48.8006 108.746 48.339C108.399 47.8725 108.148 47.3566 107.993 46.7912C107.838 46.2258 107.803 45.6372 107.889 45.0256C107.975 44.4139 108.171 43.8577 108.476 43.3569C108.782 42.8506 109.165 42.4238 109.626 42.0765C110.093 41.7244 110.609 41.4708 111.175 41.3157C111.74 41.1605 112.329 41.1259 112.94 41.2119C113.535 41.2955 114.035 41.5031 114.441 41.8348C114.847 42.1608 115.157 42.5592 115.371 43.0299L116.134 37.6008ZM111.949 48.3858C112.443 48.4552 112.892 48.3953 113.296 48.206C113.701 48.0112 114.034 47.7203 114.295 47.3334C114.561 46.9474 114.729 46.5018 114.8 45.9968C114.872 45.4861 114.833 45.0086 114.684 44.5642C114.534 44.1197 114.292 43.7508 113.955 43.4575C113.625 43.1593 113.213 42.9755 112.719 42.9061C112.231 42.8375 111.768 42.8983 111.329 43.0884C110.896 43.2793 110.529 43.5654 110.23 43.9468C109.936 44.3289 109.753 44.7725 109.682 45.2775C109.611 45.7882 109.666 46.2681 109.849 46.7173C110.038 47.1616 110.315 47.5352 110.679 47.8381C111.049 48.1362 111.472 48.3187 111.949 48.3858ZM130.365 39.6008L132.116 39.8468L130.341 52.4727L128.591 52.2267L128.764 50.9893C128.428 51.3884 128.019 51.6914 127.538 51.8985C127.058 52.0999 126.52 52.1589 125.925 52.0753C125.314 51.9893 124.757 51.7938 124.257 51.4888C123.756 51.1838 123.329 50.8005 122.976 50.3389C122.63 49.8725 122.379 49.3566 122.224 48.7912C122.069 48.2257 122.034 47.6372 122.12 47.0255C122.206 46.4139 122.401 45.8577 122.706 45.3569C123.012 44.8505 123.395 44.4237 123.856 44.0765C124.323 43.7244 124.84 43.4708 125.405 43.3156C125.971 43.1605 126.559 43.1259 127.171 43.2119C127.766 43.2955 128.266 43.5031 128.671 43.8347C129.077 44.1608 129.388 44.5592 129.602 45.0299L130.365 39.6008ZM126.18 50.3858C126.674 50.4552 127.123 50.3952 127.527 50.206C127.932 50.0111 128.265 49.7203 128.525 49.3334C128.791 48.9473 128.96 48.5018 129.031 47.9967C129.102 47.4861 129.064 47.0086 128.914 46.5641C128.765 46.1197 128.522 45.7508 128.186 45.4575C127.856 45.1593 127.444 44.9755 126.95 44.9061C126.462 44.8375 125.998 44.8982 125.559 45.0884C125.126 45.2793 124.76 45.5654 124.46 45.9468C124.166 46.3289 123.984 46.7725 123.913 47.2775C123.841 47.7881 123.897 48.2681 124.08 48.7172C124.269 49.1616 124.545 49.5352 124.909 49.8381C125.279 50.1362 125.703 50.3187 126.18 50.3858ZM133.472 44.3292L135.223 44.5752L134.04 52.9925L132.289 52.7464L133.472 44.3292ZM134.535 43.234C134.266 43.1962 134.054 43.0777 133.899 42.8785C133.744 42.6793 133.685 42.4478 133.722 42.1841C133.758 41.9259 133.878 41.7225 134.082 41.5738C134.287 41.4195 134.521 41.3608 134.785 41.3979C135.043 41.4342 135.249 41.5547 135.404 41.7595C135.559 41.9587 135.618 42.1874 135.582 42.4455C135.545 42.7092 135.424 42.9155 135.22 43.0642C135.022 43.2137 134.794 43.2703 134.535 43.234ZM135.919 53.2566L137.102 44.8393L138.853 45.0854L138.727 45.9776C139.068 45.6707 139.466 45.4462 139.92 45.3041C140.375 45.1621 140.85 45.1257 141.343 45.1951C141.658 45.2393 141.963 45.3251 142.26 45.4527L141.313 47.1221C141.106 47.0072 140.893 46.9344 140.674 46.9036C140.304 46.8515 139.951 46.8964 139.617 47.0382C139.283 47.1744 139.002 47.3838 138.773 47.6664C138.544 47.949 138.404 48.2783 138.351 48.6543L137.67 53.5027L135.919 53.2566ZM145.244 54.7903C144.469 54.6815 143.79 54.3829 143.207 53.8946C142.628 53.407 142.195 52.8026 141.908 52.0812C141.626 51.3549 141.543 50.585 141.657 49.7713C141.744 49.1541 141.934 48.5943 142.228 48.0919C142.523 47.584 142.889 47.1548 143.327 46.8044C143.772 46.4492 144.266 46.1924 144.809 46.0341C145.352 45.8758 145.913 45.8373 146.491 45.9185C147.136 46.0092 147.709 46.2271 148.21 46.5721C148.711 46.9116 149.12 47.3438 149.435 47.8688C149.751 48.3882 149.956 48.9663 150.05 49.6032C150.144 50.2345 150.107 50.8873 149.938 51.5617L143.448 50.6496C143.467 51.047 143.558 51.4175 143.721 51.7609C143.891 52.0995 144.126 52.3815 144.426 52.6068C144.732 52.8329 145.086 52.9771 145.49 53.0395C145.916 53.0994 146.318 53.0472 146.696 52.8829C147.08 52.7193 147.41 52.4654 147.687 52.1209L149.406 52.783C148.964 53.482 148.37 54.0223 147.624 54.4038C146.879 54.7798 146.085 54.9086 145.244 54.7903ZM143.577 49.303L148.358 49.9749C148.359 49.563 148.267 49.1781 148.083 48.8203C147.905 48.4577 147.658 48.1569 147.343 47.918C147.033 47.6743 146.677 47.524 146.273 47.4673C145.874 47.4113 145.491 47.4546 145.122 47.5973C144.758 47.7408 144.441 47.9623 144.17 48.2618C143.905 48.5565 143.708 48.9036 143.577 49.303ZM156.574 53.7217L158.02 54.7919C157.563 55.2714 157.018 55.6296 156.384 55.8667C155.755 56.1045 155.099 56.1753 154.414 56.0791C153.64 55.9703 152.96 55.6717 152.377 55.1834C151.799 54.6958 151.366 54.0914 151.078 53.37C150.797 52.6437 150.713 51.8738 150.828 51.0601C150.914 50.4429 151.105 49.8831 151.398 49.3807C151.693 48.8728 152.059 48.4436 152.498 48.0932C152.942 47.738 153.436 47.4812 153.979 47.3229C154.522 47.1646 155.083 47.1261 155.661 47.2073C156.345 47.3035 156.957 47.5525 157.496 47.9544C158.04 48.3571 158.465 48.8546 158.771 49.4469L157.086 50.077C156.89 49.7633 156.645 49.5115 156.351 49.3214C156.058 49.1257 155.746 49.0046 155.415 48.9581C154.955 48.8934 154.519 48.9609 154.107 49.1606C153.702 49.3554 153.362 49.6423 153.085 50.0212C152.815 50.3953 152.646 50.8236 152.578 51.3062C152.511 51.7832 152.558 52.2418 152.72 52.6822C152.882 53.117 153.131 53.4839 153.466 53.7829C153.808 54.0826 154.205 54.2644 154.66 54.3283C155.008 54.3772 155.35 54.3452 155.686 54.2322C156.023 54.1193 156.318 53.9491 156.574 53.7217ZM164.635 50.4942L162.867 50.2458L161.922 56.9111L160.171 56.6651L161.117 49.9998L159.778 49.8117L160.024 48.0609L161.363 48.249L161.726 45.6048L163.476 45.8508L163.113 48.495L164.881 48.7434L164.635 50.4942ZM165.136 57.3628L166.91 44.7369L168.661 44.983L166.887 57.6089L165.136 57.3628ZM175.32 50.2106L177.189 50.4732L170.802 62.4508L168.942 62.1894L171.057 58.1949L169.218 49.3529L171.128 49.6215L172.269 55.919L175.32 50.2106ZM186.98 53.6347L185.213 53.3862L184.267 60.0516L182.517 59.8055L183.462 53.1402L182.124 52.9521L182.37 51.2013L183.708 51.3894L184.071 48.7452L185.822 48.9912L185.459 51.6355L187.226 51.8839L186.98 53.6347ZM195.799 56.2903L195.057 61.5679L193.306 61.3219L193.988 56.4735C194.04 56.0975 193.996 55.7422 193.854 55.4076C193.718 55.0737 193.508 54.7953 193.225 54.5723C192.948 54.3446 192.618 54.2039 192.237 54.1503C191.866 54.0982 191.514 54.1431 191.179 54.2849C190.845 54.4211 190.564 54.6305 190.336 54.9131C190.107 55.1957 189.966 55.525 189.914 55.901L189.232 60.7493L187.481 60.5032L189.256 47.8773L191.007 48.1234L190.29 53.2243C190.63 52.9174 191.028 52.6929 191.483 52.5508C191.938 52.4087 192.412 52.3724 192.906 52.4418C193.529 52.5293 194.074 52.7605 194.543 53.1353C195.011 53.5101 195.357 53.9737 195.583 54.5261C195.814 55.0794 195.886 55.6674 195.799 56.2903ZM196.668 61.7944L197.851 53.3771L199.602 53.6231L199.476 54.5154C199.817 54.2085 200.215 53.984 200.67 53.8419C201.125 53.6998 201.599 53.6635 202.093 53.7329C202.407 53.777 202.713 53.8629 203.009 53.9904L202.062 55.6599C201.855 55.545 201.642 55.4721 201.424 55.4414C201.053 55.3893 200.701 55.4342 200.366 55.576C200.032 55.7122 199.751 55.9216 199.522 56.2042C199.294 56.4868 199.153 56.8161 199.1 57.1921L198.419 62.0404L196.668 61.7944ZM205.993 63.3281C205.219 63.2192 204.54 62.9206 203.956 62.4323C203.378 61.9448 202.945 61.3403 202.657 60.6189C202.376 59.8927 202.292 59.1228 202.407 58.3091C202.493 57.6918 202.684 57.132 202.977 56.6297C203.272 56.1217 203.638 55.6926 204.077 55.3422C204.522 54.9869 205.015 54.7302 205.558 54.5719C206.101 54.4136 206.662 54.375 207.24 54.4562C208.014 54.5651 208.69 54.8633 209.269 55.3508C209.852 55.8391 210.285 56.4464 210.566 57.1726C210.853 57.8996 210.939 58.6728 210.824 59.4921C210.738 60.1037 210.548 60.6607 210.254 61.163C209.961 61.6654 209.591 62.0942 209.146 62.4494C208.708 62.7998 208.217 63.0541 207.674 63.2124C207.137 63.3715 206.577 63.4101 205.993 63.3281ZM206.239 61.5773C206.705 61.6427 207.14 61.578 207.545 61.3832C207.95 61.1883 208.288 60.9039 208.558 60.5298C208.834 60.1509 209.006 59.723 209.073 59.246C209.142 58.7578 209.093 58.2931 208.926 57.8519C208.764 57.4115 208.516 57.0446 208.179 56.7513C207.843 56.4523 207.448 56.2709 206.994 56.207C206.534 56.1424 206.098 56.2071 205.688 56.4011C205.283 56.596 204.942 56.8829 204.665 57.2617C204.395 57.6414 204.225 58.0726 204.157 58.5551C204.087 59.0546 204.136 59.5221 204.304 59.9576C204.471 60.3932 204.723 60.7577 205.06 61.051C205.403 61.3395 205.796 61.515 206.239 61.5773ZM211.466 60.6552L212.205 55.3944L213.956 55.6405L213.277 60.472C213.224 60.848 213.269 61.2033 213.41 61.5379C213.552 61.8726 213.764 62.1542 214.047 62.3828C214.33 62.6057 214.657 62.7432 215.028 62.7953C215.404 62.8481 215.756 62.806 216.084 62.669C216.419 62.5272 216.697 62.3146 216.92 62.0312C217.149 61.7486 217.29 61.4193 217.342 61.0434L218.022 56.2119L219.772 56.4579L218.598 64.8764L216.847 64.6303L216.966 63.7201C216.631 64.0278 216.236 64.2526 215.781 64.3947C215.327 64.5368 214.855 64.5735 214.367 64.5049C213.744 64.4174 213.198 64.1862 212.73 63.8114C212.262 63.4366 211.913 62.9726 211.681 62.4194C211.45 61.8662 211.378 61.2781 211.466 60.6552ZM227.69 57.5707L229.441 57.8168L228.227 66.4529C228.146 67.0309 227.948 67.5466 227.632 68.0001C227.322 68.4544 226.935 68.8291 226.47 69.1243C226.004 69.4251 225.488 69.6358 224.922 69.7565C224.361 69.878 223.789 69.8977 223.205 69.8157C222.616 69.7329 222.067 69.527 221.558 69.198C221.049 68.8746 220.616 68.4704 220.261 67.9856C219.911 67.5016 219.673 66.976 219.547 66.4089L221.256 65.9109C221.32 66.2746 221.456 66.6085 221.665 66.9126C221.88 67.2174 222.141 67.4716 222.45 67.6753C222.765 67.8797 223.099 68.0068 223.453 68.0565C223.801 68.1054 224.142 68.0962 224.478 68.0289C224.818 67.968 225.129 67.8571 225.409 67.6962C225.695 67.5361 225.932 67.3292 226.123 67.0755C226.313 66.8219 226.431 66.5323 226.476 66.2068L226.676 64.7843C226.342 65.1721 225.939 65.4676 225.47 65.6706C225.002 65.868 224.482 65.9265 223.909 65.846C223.314 65.7624 222.769 65.5685 222.274 65.2643C221.779 64.9601 221.361 64.578 221.019 64.118C220.678 63.6523 220.433 63.1372 220.284 62.5726C220.134 62.0079 220.102 61.4198 220.188 60.8081C220.274 60.1965 220.467 59.6399 220.766 59.1383C221.066 58.6312 221.444 58.2036 221.899 57.8555C222.355 57.5019 222.863 57.2471 223.423 57.0911C223.983 56.9352 224.56 56.899 225.155 56.9826C225.727 57.0631 226.211 57.2655 226.606 57.59C227.002 57.9088 227.307 58.3036 227.521 58.7744L227.69 57.5707ZM224.164 64.1565C224.652 64.2251 225.096 64.1616 225.495 63.966C225.896 63.7647 226.226 63.4707 226.486 63.0838C226.747 62.6969 226.911 62.2566 226.981 61.7628C227.052 61.2577 227.012 60.7858 226.862 60.347C226.719 59.9033 226.482 59.5324 226.152 59.2343C225.822 58.9305 225.417 58.7447 224.934 58.6769C224.463 58.6106 224.013 58.6733 223.586 58.865C223.164 59.0575 222.809 59.3452 222.52 59.7282C222.232 60.1111 222.052 60.5551 221.981 61.0601C221.91 61.5651 221.96 62.0414 222.132 62.489C222.309 62.9374 222.574 63.3123 222.927 63.6136C223.286 63.9101 223.698 64.0911 224.164 64.1565ZM238.526 62.2953L237.785 67.5729L236.034 67.3268L236.715 62.4785C236.768 62.1025 236.724 61.7472 236.582 61.4125C236.446 61.0787 236.236 60.8003 235.952 60.5773C235.675 60.3496 235.346 60.2089 234.964 60.1552C234.594 60.1032 234.242 60.1481 233.907 60.2899C233.573 60.4261 233.292 60.6355 233.063 60.9181C232.835 61.2007 232.694 61.53 232.641 61.9059L231.96 66.7543L230.209 66.5082L231.983 53.8823L233.734 54.1284L233.017 59.2292C233.358 58.9223 233.756 58.6978 234.211 58.5558C234.666 58.4137 235.14 58.3774 235.634 58.4468C236.257 58.5343 236.802 58.7655 237.27 59.1402C237.738 59.515 238.085 59.9787 238.311 60.5311C238.542 61.0843 238.614 61.6724 238.526 62.2953ZM243.371 68.358L245.027 56.5738L251.971 57.5498L251.725 59.3006L246.532 58.5707L246.132 61.4157L250.517 62.032L250.271 63.7828L245.886 63.1665L245.122 68.6041L243.371 68.358ZM252.162 61.01L253.913 61.2561L252.73 69.6734L250.979 69.4273L252.162 61.01ZM253.226 59.9149C252.957 59.8771 252.745 59.7585 252.589 59.5594C252.434 59.3602 252.375 59.1287 252.412 58.865C252.449 58.6068 252.569 58.4034 252.773 58.2547C252.978 58.1003 253.212 58.0417 253.476 58.0788C253.734 58.1151 253.94 58.2356 254.094 58.4404C254.249 58.6396 254.309 58.8683 254.273 59.1264C254.236 59.3901 254.115 59.5964 253.911 59.7451C253.713 59.8946 253.484 59.9512 253.226 59.9149ZM254.026 69.8555L257.701 66.063L255.228 61.4238L257.392 61.7278L258.989 64.7161L261.356 62.285L263.511 62.5878L259.864 66.367L262.351 71.0255L260.188 70.7214L258.57 67.6959L256.189 70.1595L254.026 69.8555ZM263.624 71.2044L267.298 67.4119L264.826 62.7726L266.989 63.0766L268.586 66.065L270.954 63.6338L273.109 63.9367L269.462 67.7159L271.948 72.3743L269.785 72.0703L268.168 69.0447L265.787 71.5084L263.624 71.2044ZM280.517 64.995L282.268 65.2411L281.085 73.6584L279.326 73.4111L279.43 72.1812C279.122 72.5785 278.74 72.8795 278.282 73.0841C277.824 73.2887 277.308 73.3508 276.736 73.2704C276.119 73.1836 275.554 72.9869 275.042 72.6804C274.531 72.3682 274.097 71.9753 273.74 71.5017C273.389 71.0289 273.136 70.5069 272.982 69.9359C272.828 69.3592 272.795 68.7595 272.883 68.1366C272.967 67.5362 273.158 66.988 273.457 66.492C273.756 65.9905 274.133 65.5685 274.588 65.2261C275.042 64.8837 275.546 64.6369 276.1 64.4858C276.659 64.3298 277.239 64.294 277.84 64.3784C278.452 64.4644 278.971 64.6804 279.397 65.0264C279.83 65.3676 280.17 65.776 280.418 66.2514L280.517 64.995ZM276.932 71.5726C277.426 71.642 277.875 71.582 278.279 71.3928C278.684 71.1979 279.017 70.9071 279.277 70.5202C279.543 70.1342 279.712 69.6886 279.783 69.1836C279.854 68.6729 279.816 68.1954 279.666 67.7509C279.517 67.3065 279.274 66.9376 278.938 66.6443C278.608 66.3461 278.196 66.1623 277.702 66.0929C277.214 66.0243 276.75 66.0851 276.312 66.2752C275.873 66.4653 275.506 66.7514 275.212 67.1336C274.918 67.5157 274.736 67.9593 274.665 68.4643C274.593 68.975 274.649 69.4549 274.832 69.904C275.021 70.3484 275.297 70.722 275.661 71.0249C276.031 71.323 276.455 71.5055 276.932 71.5726ZM290.728 75.0136L288.986 74.7687L287.349 65.9552L289.066 66.1965L290.222 72.3846L293.022 66.7525L294.79 67.0009L295.929 73.1866L298.737 67.5557L300.454 67.797L296.46 75.8192L294.701 75.572L293.551 69.3418L290.728 75.0136ZM301.693 67.9711L303.444 68.2172L302.261 76.6344L300.51 76.3884L301.693 67.9711ZM302.757 66.876C302.487 66.8381 302.275 66.7196 302.12 66.5204C301.965 66.3212 301.906 66.0898 301.943 65.826C301.979 65.5679 302.099 65.3645 302.303 65.2157C302.508 65.0614 302.742 65.0028 303.006 65.0398C303.264 65.0761 303.471 65.1967 303.625 65.4015C303.78 65.6007 303.839 65.8293 303.803 66.0875C303.766 66.3512 303.646 66.5574 303.442 66.7062C303.243 66.8557 303.015 66.9123 302.757 66.876ZM309.587 70.8659L307.819 70.6175L306.874 77.2828L305.123 77.0367L306.069 70.3714L304.73 70.1833L304.976 68.4325L306.315 68.6206L306.678 65.9764L308.428 66.2225L308.065 68.8667L309.833 69.1151L309.587 70.8659ZM318.405 73.5215L317.664 78.7992L315.913 78.5531L316.594 73.7047C316.647 73.3288 316.602 72.9735 316.461 72.6388C316.324 72.3049 316.115 72.0265 315.831 71.8036C315.554 71.5758 315.225 71.4351 314.843 71.3815C314.473 71.3294 314.121 71.3743 313.786 71.5161C313.452 71.6523 313.171 71.8617 312.942 72.1443C312.714 72.4269 312.573 72.7562 312.52 73.1322L311.839 77.9805L310.088 77.7345L311.862 65.1086L313.613 65.3546L312.896 70.4555C313.237 70.1486 313.635 69.9241 314.09 69.782C314.545 69.6399 315.019 69.6036 315.513 69.673C316.136 69.7605 316.681 69.9917 317.149 70.3665C317.617 70.7413 317.964 71.2049 318.19 71.7574C318.421 72.3106 318.493 72.8986 318.405 73.5215ZM55.1623 52.1063L57.2077 52.3937L59.836 64.7801L57.9842 64.5198L57.4823 62.1661L52.2047 61.4243L51.082 63.5498L49.2218 63.2883L55.1623 52.1063ZM53.0989 59.7646L57.0803 60.3242L55.8543 54.5726L53.0989 59.7646ZM62.1567 69.398L60.4059 69.1519L62.1804 56.526L63.9312 56.7721L63.7573 58.0094C64.0986 57.6168 64.507 57.3165 64.9826 57.1087C65.4581 56.9008 65.9933 56.8387 66.5881 56.9223C67.1998 57.0083 67.756 57.2038 68.2568 57.5087C68.7631 57.8145 69.1896 58.2006 69.536 58.6671C69.8833 59.1279 70.1345 59.641 70.2896 60.2064C70.4448 60.7718 70.4794 61.3604 70.3934 61.972C70.3074 62.5837 70.1116 63.1427 69.8058 63.6491C69.5 64.1555 69.1163 64.5851 68.6547 64.9379C68.1939 65.2852 67.678 65.536 67.1069 65.6903C66.5415 65.8455 65.953 65.8801 65.3413 65.7941C64.7465 65.7105 64.2491 65.5033 63.8493 65.1724C63.4502 64.836 63.1404 64.4348 62.9198 63.9689L62.1567 69.398ZM66.3335 58.6118C65.8453 58.5432 65.3987 58.6063 64.9936 58.8012C64.5886 58.996 64.2531 59.2865 63.9871 59.6726C63.7219 60.053 63.5538 60.4958 63.4828 61.0008C63.4118 61.5059 63.451 61.9806 63.6002 62.425C63.7495 62.8695 63.992 63.2412 64.3276 63.5401C64.6633 63.8391 65.0752 64.0229 65.5634 64.0915C66.046 64.1593 66.5063 64.101 66.9442 63.9164C67.3829 63.7263 67.7521 63.4406 68.0518 63.0592C68.3515 62.6779 68.5372 62.2319 68.6089 61.7213C68.6791 61.2218 68.6227 60.7475 68.4398 60.2984C68.2625 59.85 67.9892 59.474 67.6198 59.1703C67.2505 58.8666 66.8217 58.6804 66.3335 58.6118ZM72.2641 70.8185L70.5133 70.5724L72.2877 57.9465L74.0385 58.1926L73.8646 59.4299C74.2059 59.0373 74.6144 58.737 75.0899 58.5292C75.5655 58.3213 76.1007 58.2592 76.6955 58.3428C77.3071 58.4288 77.8633 58.6242 78.3641 58.9292C78.8705 59.235 79.2969 59.6211 79.6434 60.0876C79.9906 60.5484 80.2418 61.0615 80.3969 61.6269C80.5521 62.1923 80.5867 62.7809 80.5007 63.3925C80.4148 64.0042 80.2189 64.5632 79.9131 65.0696C79.6073 65.576 79.2236 66.0056 78.762 66.3584C78.3012 66.7057 77.7853 66.9565 77.2143 67.1108C76.6488 67.266 76.0603 67.3006 75.4486 67.2146C74.8538 67.131 74.3565 66.9238 73.9566 66.5929C73.5576 66.2564 73.2477 65.8553 73.0271 65.3893L72.2641 70.8185ZM76.4409 60.0323C75.9527 59.9637 75.506 60.0268 75.101 60.2217C74.6959 60.4165 74.3604 60.707 74.0944 61.0931C73.8292 61.4735 73.6611 61.9163 73.5901 62.4213C73.5192 62.9264 73.5583 63.4011 73.7076 63.8455C73.8568 64.29 74.0993 64.6617 74.435 64.9606C74.7706 65.2596 75.1826 65.4434 75.6708 65.512C76.1533 65.5798 76.6136 65.5214 77.0516 65.3369C77.4903 65.1468 77.8595 64.8611 78.1591 64.4797C78.4588 64.0984 78.6445 63.6524 78.7163 63.1418C78.7865 62.6423 78.7301 62.168 78.5471 61.7189C78.3698 61.2705 78.0965 60.8945 77.7272 60.5908C77.3578 60.2871 76.9291 60.1009 76.4409 60.0323ZM81.097 67.7681L82.8715 55.1422L84.6223 55.3883L82.8478 68.0142L81.097 67.7681ZM88.3505 69.0107C87.5761 68.9019 86.8971 68.6033 86.3134 68.115C85.7353 67.6274 85.3023 67.023 85.0146 66.3016C84.7333 65.5753 84.6498 64.8054 84.7641 63.9917C84.8509 63.3745 85.0411 62.8147 85.3349 62.3123C85.6295 61.8044 85.9959 61.3752 86.4343 61.0248C86.8791 60.6696 87.3729 60.4128 87.9159 60.2545C88.4589 60.0962 89.0194 60.0577 89.5974 60.1389C90.2427 60.2296 90.8158 60.4475 91.3166 60.7925C91.8183 61.132 92.2268 61.5642 92.5421 62.0892C92.8582 62.6086 93.0631 63.1867 93.1567 63.8236C93.2511 64.4549 93.2137 65.1077 93.0446 65.7821L86.5548 64.87C86.5734 65.2674 86.6644 65.6379 86.8278 65.9813C86.9977 66.3199 87.2327 66.6019 87.533 66.8272C87.8388 67.0533 88.1933 67.1975 88.5966 67.2599C89.0231 67.3198 89.4252 67.2676 89.8031 67.1033C90.1866 66.9397 90.517 66.6858 90.7943 66.3413L92.5124 67.0034C92.0708 67.7024 91.477 68.2427 90.731 68.6242C89.9857 69.0002 89.1923 69.129 88.3505 69.0107ZM86.684 63.5234L91.465 64.1953C91.4657 63.7834 91.3739 63.3985 91.1895 63.0407C91.0116 62.6781 90.7649 62.3773 90.4494 62.1384C90.1403 61.8947 89.7837 61.7444 89.3797 61.6877C88.9813 61.6317 88.5975 61.675 88.2284 61.8177C87.8649 61.9612 87.5477 62.1827 87.2767 62.4822C87.0121 62.7769 86.8145 63.124 86.684 63.5234ZM97.9876 70.1419L99.6437 58.3577L103.701 58.9279C104.335 59.017 104.885 59.2546 105.352 59.6406C105.824 60.0274 106.174 60.5087 106.402 61.0843C106.636 61.6608 106.707 62.2717 106.617 62.917C106.524 63.5736 106.284 64.1463 105.894 64.6352C105.512 65.1194 105.04 65.4823 104.48 65.7239C103.919 65.9656 103.33 66.0431 102.713 65.9564L100.407 65.6322L99.7384 70.388L97.9876 70.1419ZM100.653 63.8814L102.782 64.1807C103.119 64.228 103.437 64.1868 103.735 64.0571C104.04 63.9282 104.293 63.7349 104.495 63.4772C104.703 63.2203 104.831 62.9151 104.881 62.5615C104.931 62.208 104.891 61.8791 104.762 61.5749C104.64 61.2658 104.45 61.0102 104.192 60.8081C103.941 60.6011 103.647 60.4739 103.31 60.4266L101.18 60.1273L100.653 63.8814ZM114.084 63.8206L115.835 64.0666L114.652 72.4839L112.892 72.2367L112.997 71.0067C112.689 71.4041 112.306 71.7051 111.848 71.9097C111.39 72.1143 110.875 72.1763 110.303 72.0959C109.686 72.0091 109.121 71.8125 108.609 71.5059C108.098 71.1937 107.664 70.8008 107.307 70.3272C106.956 69.8544 106.703 69.3325 106.548 68.7614C106.395 68.1848 106.362 67.585 106.449 66.9621C106.534 66.3617 106.725 65.8135 107.024 65.3176C107.323 64.816 107.7 64.394 108.155 64.0516C108.609 63.7092 109.113 63.4624 109.666 63.3113C110.226 63.1554 110.806 63.1196 111.407 63.204C112.018 63.2899 112.537 63.5059 112.964 63.852C113.396 64.1932 113.737 64.6015 113.985 65.077L114.084 63.8206ZM110.499 70.3981C110.992 70.4675 111.441 70.4076 111.846 70.2183C112.251 70.0235 112.583 69.7326 112.844 69.3458C113.11 68.9597 113.278 68.5141 113.349 68.0091C113.421 67.4985 113.382 67.0209 113.233 66.5765C113.084 66.1321 112.841 65.7632 112.504 65.4698C112.174 65.1716 111.762 64.9879 111.269 64.9185C110.78 64.8498 110.317 64.9106 109.878 65.1007C109.44 65.2909 109.073 65.577 108.779 65.9591C108.485 66.3412 108.303 66.7848 108.232 67.2899C108.16 67.8005 108.215 68.2804 108.398 68.7296C108.588 69.1739 108.864 69.5475 109.228 69.8504C109.598 70.1485 110.022 70.3311 110.499 70.3981ZM122.849 65.0525L124.718 65.3151L118.331 77.2928L116.471 77.0313L118.586 73.0368L116.747 64.1948L118.658 64.4634L119.798 70.7609L122.849 65.0525ZM124.026 74.7628L124.948 71.9911L126.699 72.2371L125.188 74.926L124.026 74.7628ZM137.796 75.9598C136.977 75.8446 136.235 75.5803 135.573 75.1666C134.916 74.7482 134.363 74.2213 133.915 73.5861C133.473 72.9459 133.155 72.2346 132.962 71.4521C132.774 70.6704 132.739 69.8615 132.856 69.0253C132.98 68.1443 133.251 67.3556 133.67 66.659C134.088 65.9624 134.607 65.3803 135.228 64.9124C135.85 64.439 136.53 64.0997 137.268 63.8944C138.012 63.69 138.769 63.6418 139.538 63.7499C140.407 63.8721 141.215 64.1916 141.961 64.7084C142.706 65.2252 143.32 65.9295 143.801 66.8211L142.116 67.4512C141.783 66.8894 141.365 66.4416 140.863 66.1077C140.366 65.7747 139.837 65.5687 139.276 65.4899C138.732 65.4134 138.199 65.453 137.68 65.6089C137.161 65.7591 136.685 66.007 136.253 66.3526C135.822 66.6926 135.46 67.1137 135.166 67.6161C134.879 68.1136 134.691 68.6738 134.604 69.2967C134.519 69.8971 134.544 70.4756 134.677 71.0323C134.816 71.5897 135.043 72.0937 135.357 72.5442C135.678 72.9898 136.067 73.3592 136.524 73.6523C136.986 73.9461 137.498 74.1325 138.059 74.2113C138.474 74.2697 138.882 74.2584 139.282 74.1773C139.683 74.0963 140.063 73.9552 140.423 73.754C140.79 73.548 141.121 73.2884 141.417 72.9752C141.713 72.662 141.964 72.3024 142.169 71.8964L139.669 71.5451L139.887 69.9963L144.441 70.6363C144.334 71.4796 144.077 72.2503 143.67 72.9484C143.268 73.6474 142.761 74.2427 142.148 74.7346C141.542 75.2216 140.865 75.5758 140.119 75.797C139.373 76.0183 138.598 76.0726 137.796 75.9598ZM148.676 77.4888C147.901 77.38 147.222 77.0814 146.639 76.5931C146.06 76.1056 145.627 75.5011 145.34 74.7797C145.058 74.0535 144.975 73.2835 145.089 72.4699C145.176 71.8526 145.366 71.2928 145.66 70.7905C145.955 70.2825 146.321 69.8533 146.759 69.5029C147.204 69.1477 147.698 68.8909 148.241 68.7326C148.784 68.5743 149.345 68.5358 149.923 68.617C150.697 68.7259 151.373 69.024 151.951 69.5116C152.535 69.9999 152.968 70.6072 153.249 71.3334C153.536 72.0604 153.622 72.8336 153.507 73.6528C153.421 74.2645 153.231 74.8215 152.937 75.3238C152.643 75.8262 152.274 76.2549 151.829 76.6102C151.391 76.9606 150.9 77.2149 150.357 77.3732C149.82 77.5323 149.259 77.5709 148.676 77.4888ZM148.922 75.738C149.387 75.8035 149.823 75.7388 150.228 75.544C150.633 75.3491 150.971 75.0646 151.241 74.6906C151.517 74.3117 151.689 73.8838 151.756 73.4068C151.824 72.9186 151.775 72.4539 151.608 72.0127C151.447 71.5723 151.198 71.2054 150.862 70.9121C150.526 70.6131 150.131 70.4317 149.676 70.3678C149.216 70.3032 148.781 70.3679 148.37 70.5619C147.965 70.7568 147.624 71.0436 147.348 71.4225C147.077 71.8022 146.908 72.2333 146.84 72.7159C146.77 73.2154 146.819 73.6829 146.986 74.1184C147.154 74.554 147.406 74.9185 147.742 75.2118C148.085 75.5003 148.478 75.6757 148.922 75.738ZM157.862 78.7799C157.088 78.6711 156.409 78.3725 155.825 77.8842C155.247 77.3967 154.814 76.7922 154.526 76.0708C154.245 75.3446 154.162 74.5746 154.276 73.761C154.363 73.1437 154.553 72.5839 154.847 72.0816C155.141 71.5736 155.508 71.1444 155.946 70.794C156.391 70.4388 156.885 70.1821 157.428 70.0237C157.971 69.8654 158.531 69.8269 159.109 69.9081C159.884 70.017 160.56 70.3152 161.138 70.8027C161.722 71.291 162.154 71.8983 162.436 72.6245C162.722 73.3515 162.808 74.1247 162.693 74.9439C162.607 75.5556 162.417 76.1126 162.124 76.6149C161.83 77.1173 161.461 77.5461 161.016 77.9013C160.577 78.2517 160.087 78.506 159.544 78.6643C159.006 78.8234 158.446 78.862 157.862 78.7799ZM158.108 77.0292C158.574 77.0946 159.01 77.0299 159.415 76.8351C159.82 76.6402 160.157 76.3557 160.427 75.9817C160.704 75.6028 160.875 75.1749 160.942 74.6979C161.011 74.2097 160.962 73.745 160.795 73.3038C160.634 72.8634 160.385 72.4965 160.048 72.2032C159.713 71.9042 159.318 71.7228 158.863 71.6589C158.403 71.5943 157.968 71.659 157.557 71.853C157.152 72.0479 156.811 72.3348 156.535 72.7136C156.264 73.0933 156.095 73.5244 156.027 74.007C155.957 74.5065 156.005 74.974 156.173 75.4095C156.341 75.8451 156.593 76.2096 156.929 76.5029C157.272 76.7914 157.665 76.9669 158.108 77.0292ZM170.965 71.8147L172.716 72.0607L171.502 80.6968C171.421 81.2748 171.222 81.7906 170.907 82.2441C170.597 82.6984 170.209 83.0731 169.744 83.3683C169.279 83.669 168.763 83.8798 168.196 84.0005C167.636 84.122 167.064 84.1417 166.48 84.0597C165.891 83.9769 165.342 83.7709 164.833 83.4419C164.323 83.1185 163.891 82.7144 163.535 82.2296C163.186 81.7455 162.948 81.2199 162.821 80.6528L164.531 80.1549C164.594 80.5186 164.73 80.8525 164.939 81.1565C165.154 81.4614 165.416 81.7156 165.725 81.9193C166.04 82.1237 166.374 82.2508 166.727 82.3005C167.075 82.3493 167.417 82.3402 167.752 82.2729C168.093 82.212 168.403 82.1011 168.683 81.9402C168.969 81.7801 169.207 81.5732 169.397 81.3195C169.587 81.0658 169.705 80.7763 169.751 80.4508L169.951 79.0283C169.616 79.4161 169.214 79.7115 168.745 79.9145C168.276 80.1119 167.756 80.1704 167.184 80.09C166.589 80.0064 166.044 79.8125 165.549 79.5083C165.054 79.2041 164.635 78.822 164.294 78.3619C163.953 77.8963 163.708 77.3812 163.558 76.8165C163.408 76.2519 163.377 75.6637 163.463 75.0521C163.549 74.4404 163.741 73.8838 164.041 73.3823C164.341 72.8751 164.719 72.4475 165.174 72.0995C165.63 71.7458 166.138 71.491 166.697 71.3351C167.257 71.1792 167.835 71.143 168.429 71.2266C169.002 71.307 169.485 71.5095 169.881 71.834C170.276 72.1528 170.581 72.5476 170.796 73.0183L170.965 71.8147ZM167.438 78.4005C167.927 78.4691 168.37 78.4056 168.77 78.2099C169.17 78.0087 169.5 77.7146 169.761 77.3278C170.021 76.9409 170.186 76.5006 170.255 76.0067C170.326 75.5017 170.287 75.0298 170.137 74.591C169.993 74.1473 169.756 73.7764 169.426 73.4782C169.097 73.1745 168.691 72.9887 168.208 72.9208C167.737 72.8546 167.288 72.9173 166.86 73.109C166.438 73.3015 166.083 73.5892 165.795 73.9721C165.506 74.355 165.327 74.799 165.256 75.3041C165.185 75.8091 165.235 76.2854 165.407 76.733C165.584 77.1814 165.849 77.5562 166.201 77.8575C166.56 78.154 166.973 78.335 167.438 78.4005ZM173.484 80.7522L175.258 68.1263L177.009 68.3723L175.234 80.9982L173.484 80.7522ZM180.737 81.9948C179.963 81.8859 179.284 81.5874 178.7 81.099C178.122 80.6115 177.689 80.007 177.401 79.2856C177.12 78.5594 177.036 77.7895 177.151 76.9758C177.237 76.3585 177.428 75.7987 177.721 75.2964C178.016 74.7884 178.382 74.3593 178.821 74.0089C179.266 73.6536 179.759 73.3969 180.302 73.2386C180.845 73.0803 181.406 73.0417 181.984 73.123C182.629 73.2137 183.202 73.4315 183.703 73.7766C184.205 74.1161 184.613 74.5483 184.929 75.0733C185.245 75.5927 185.45 76.1708 185.543 76.8077C185.638 77.439 185.6 78.0918 185.431 78.7661L178.941 77.8541C178.96 78.2515 179.051 78.6219 179.214 78.9654C179.384 79.304 179.619 79.5859 179.919 79.8112C180.225 80.0373 180.58 80.1816 180.983 80.244C181.41 80.3039 181.812 80.2517 182.19 80.0874C182.573 79.9238 182.904 79.6698 183.181 79.3254L184.899 79.9875C184.457 80.6865 183.864 81.2268 183.118 81.6083C182.372 81.9843 181.579 82.1131 180.737 81.9948ZM179.071 76.5074L183.852 77.1794C183.852 76.7674 183.76 76.3826 183.576 76.0248C183.398 75.6622 183.151 75.3614 182.836 75.1225C182.527 74.8788 182.17 74.7285 181.766 74.6717C181.368 74.6157 180.984 74.6591 180.615 74.8018C180.251 74.9453 179.934 75.1668 179.663 75.4663C179.399 75.761 179.201 76.108 179.071 76.5074ZM190.374 83.126L192.03 71.3418L196.087 71.912C196.721 72.0011 197.272 72.2387 197.738 72.6247C198.21 73.0115 198.56 73.4927 198.789 74.0684C199.022 74.6449 199.094 75.2558 199.003 75.9011C198.911 76.5577 198.67 77.1304 198.281 77.6193C197.898 78.1034 197.427 78.4663 196.866 78.708C196.306 78.9497 195.717 79.0272 195.1 78.9404L192.793 78.6163L192.125 83.3721L190.374 83.126ZM193.039 76.8655L195.169 77.1648C195.506 77.2121 195.823 77.1709 196.122 77.0412C196.426 76.9123 196.679 76.719 196.881 76.4613C197.089 76.2044 197.218 75.8992 197.268 75.5456C197.317 75.1921 197.278 74.8632 197.149 74.559C197.026 74.2499 196.836 73.9943 196.578 73.7922C196.327 73.5852 196.033 73.458 195.697 73.4107L193.567 73.1114L193.039 76.8655ZM206.47 76.8047L208.221 77.0507L207.038 85.468L205.279 85.2208L205.383 83.9908C205.076 84.3882 204.693 84.6892 204.235 84.8938C203.777 85.0983 203.262 85.1604 202.689 85.08C202.072 84.9932 201.508 84.7966 200.996 84.49C200.484 84.1778 200.05 83.7849 199.693 83.3113C199.342 82.8385 199.089 82.3165 198.935 81.7455C198.781 81.1689 198.748 80.5691 198.836 79.9462C198.92 79.3458 199.112 78.7976 199.41 78.3017C199.71 77.8001 200.087 77.3781 200.541 77.0357C200.995 76.6933 201.499 76.4465 202.053 76.2954C202.613 76.1394 203.193 76.1037 203.793 76.1881C204.405 76.274 204.924 76.49 205.35 76.836C205.783 77.1773 206.123 77.5856 206.371 78.0611L206.47 76.8047ZM202.885 83.3822C203.379 83.4516 203.828 83.3917 204.232 83.2024C204.637 83.0076 204.97 82.7167 205.23 82.3298C205.496 81.9438 205.665 81.4982 205.736 80.9932C205.808 80.4825 205.769 80.005 205.62 79.5606C205.47 79.1161 205.227 78.7472 204.891 78.4539C204.561 78.1557 204.149 77.9719 203.655 77.9025C203.167 77.8339 202.704 77.8947 202.265 78.0848C201.826 78.2749 201.46 78.5611 201.166 78.9432C200.872 79.3253 200.689 79.7689 200.618 80.2739C200.546 80.7846 200.602 81.2645 200.785 81.7137C200.974 82.158 201.251 82.5316 201.614 82.8345C201.985 83.1326 202.408 83.3152 202.885 83.3822ZM215.236 78.0366L217.105 78.2992L210.717 90.2768L208.857 90.0154L210.972 86.0209L209.133 77.1789L211.044 77.4475L212.185 83.745L215.236 78.0366ZM224.699 88.1733C224.015 88.0771 223.426 87.8256 222.934 87.4188C222.448 87.0128 222.088 86.5187 221.855 85.9367C221.629 85.3498 221.559 84.7421 221.648 84.1136C221.698 83.7544 221.776 83.4449 221.881 83.185C221.992 82.9259 222.15 82.6791 222.354 82.4447C222.565 82.211 222.841 81.9551 223.183 81.6771C223.531 81.3998 223.968 81.0634 224.493 80.6679C224.271 80.3679 224.088 80.1075 223.941 79.8866C223.795 79.6658 223.683 79.4641 223.606 79.2816C223.529 79.0934 223.482 78.9036 223.463 78.7121C223.449 78.5214 223.459 78.3082 223.492 78.0725C223.562 77.5787 223.742 77.1548 224.032 76.8007C224.323 76.441 224.68 76.1765 225.105 76.0073C225.53 75.8324 225.972 75.7773 226.433 75.842C226.904 75.9082 227.319 76.0868 227.679 76.3777C228.04 76.663 228.307 77.0182 228.482 77.4433C228.663 77.8636 228.72 78.3151 228.652 78.7977C228.618 79.039 228.566 79.2519 228.494 79.4363C228.423 79.6152 228.322 79.7841 228.191 79.9431C228.065 80.1029 227.902 80.2687 227.7 80.4407C227.5 80.607 227.255 80.7987 226.967 81.0157L229.152 83.915L231.466 82.1715L231.118 84.6462L230.206 85.3335L232.008 87.7155L230.597 88.779L228.802 86.4065C228.271 86.8068 227.821 87.1328 227.454 87.3845C227.092 87.6369 226.771 87.8292 226.489 87.9613C226.207 88.0933 225.927 88.1741 225.648 88.2036C225.375 88.2339 225.059 88.2238 224.699 88.1733ZM224.946 86.4225C225.17 86.454 225.364 86.4556 225.529 86.4272C225.699 86.3939 225.878 86.3246 226.064 86.2192C226.251 86.1082 226.474 85.9534 226.73 85.7549C226.994 85.5515 227.33 85.2927 227.741 84.9785L225.556 82.0792C225.134 82.3975 224.788 82.6579 224.519 82.8605C224.251 83.0574 224.041 83.2282 223.889 83.3728C223.743 83.5182 223.633 83.6687 223.56 83.8243C223.487 83.9744 223.435 84.1588 223.405 84.3776C223.357 84.7199 223.395 85.0372 223.52 85.3294C223.65 85.6224 223.839 85.8664 224.086 86.0614C224.339 86.2572 224.626 86.3775 224.946 86.4225ZM225.869 79.8486C226.196 79.6026 226.442 79.4198 226.607 79.3C226.779 79.1754 226.898 79.0633 226.964 78.9638C227.036 78.8594 227.084 78.7203 227.108 78.5463C227.152 78.2377 227.077 77.9754 226.884 77.7595C226.698 77.5387 226.475 77.4102 226.217 77.3739C225.937 77.3345 225.681 77.4016 225.451 77.5752C225.22 77.7488 225.085 77.9759 225.046 78.2565C225.022 78.4305 225.029 78.5803 225.069 78.706C225.115 78.8269 225.2 78.9706 225.326 79.137C225.457 79.3042 225.638 79.5414 225.869 79.8486ZM243.255 88.1202L244.701 89.1903C244.244 89.6698 243.699 90.0281 243.065 90.2651C242.436 90.5029 241.78 90.5738 241.095 90.4775C240.321 90.3687 239.642 90.0701 239.058 89.5818C238.48 89.0943 238.047 88.4898 237.759 87.7684C237.478 87.0422 237.394 86.2722 237.509 85.4586C237.595 84.8413 237.786 84.2815 238.079 83.7792C238.374 83.2712 238.74 82.842 239.179 82.4916C239.624 82.1364 240.117 81.8796 240.66 81.7213C241.203 81.563 241.764 81.5245 242.342 81.6057C243.027 81.7019 243.638 81.951 244.177 82.3529C244.721 82.7555 245.146 83.253 245.452 83.8454L243.767 84.4755C243.571 84.1618 243.326 83.9099 243.032 83.7198C242.739 83.5242 242.427 83.4031 242.096 83.3565C241.636 83.2919 241.2 83.3594 240.788 83.559C240.383 83.7539 240.043 84.0408 239.766 84.4196C239.496 84.7937 239.327 85.222 239.259 85.7046C239.192 86.1816 239.24 86.6403 239.401 87.0807C239.563 87.5155 239.812 87.8824 240.147 88.1813C240.489 88.4811 240.887 88.6629 241.341 88.7267C241.689 88.7756 242.031 88.7436 242.367 88.6307C242.704 88.5177 243 88.3475 243.255 88.1202ZM253.453 83.4076L255.204 83.6537L254.021 92.0709L252.261 91.8237L252.366 90.5937C252.058 90.9911 251.675 91.2921 251.217 91.4967C250.759 91.7013 250.244 91.7634 249.672 91.6829C249.055 91.5962 248.49 91.3995 247.978 91.0929C247.467 90.7808 247.033 90.3879 246.676 89.9142C246.325 89.4414 246.072 88.9195 245.917 88.3484C245.764 87.7718 245.731 87.172 245.818 86.5492C245.903 85.9487 246.094 85.4005 246.393 84.9046C246.692 84.4031 247.069 83.9811 247.523 83.6386C247.978 83.2962 248.482 83.0494 249.035 82.8983C249.595 82.7424 250.175 82.7066 250.776 82.791C251.387 82.877 251.906 83.093 252.333 83.439C252.765 83.7802 253.106 84.1885 253.353 84.664L253.453 83.4076ZM249.867 89.9851C250.361 90.0545 250.81 89.9946 251.215 89.8054C251.62 89.6105 251.952 89.3197 252.213 88.9328C252.479 88.5467 252.647 88.1012 252.718 87.5961C252.79 87.0855 252.751 86.6079 252.602 86.1635C252.453 85.7191 252.21 85.3502 251.873 85.0568C251.543 84.7587 251.131 84.5749 250.638 84.5055C250.149 84.4369 249.686 84.4976 249.247 84.6878C248.808 84.8779 248.442 85.164 248.148 85.5461C247.854 85.9283 247.671 86.3718 247.601 86.8769C247.529 87.3875 247.584 87.8674 247.767 88.3166C247.957 88.7609 248.233 89.1346 248.597 89.4375C248.967 89.7355 249.391 89.9181 249.867 89.9851ZM255.631 92.2973L256.814 83.88L258.565 84.1261L258.44 85.0183C258.78 84.7114 259.178 84.4869 259.633 84.3448C260.088 84.2028 260.562 84.1664 261.056 84.2358C261.37 84.28 261.676 84.3658 261.973 84.4934L261.025 86.1628C260.818 86.0479 260.606 85.9751 260.387 85.9443C260.016 85.8922 259.664 85.9371 259.329 86.0789C258.995 86.2151 258.714 86.4245 258.486 86.7071C258.257 86.9897 258.116 87.319 258.063 87.695L257.382 92.5434L255.631 92.2973ZM269.615 81.3873L271.366 81.6333L269.591 94.2592L267.84 94.0132L268.014 92.7758C267.678 93.1749 267.269 93.4779 266.788 93.685C266.307 93.8864 265.77 93.9454 265.175 93.8618C264.563 93.7758 264.007 93.5803 263.506 93.2753C263.006 92.9703 262.579 92.587 262.226 92.1254C261.88 91.659 261.629 91.1431 261.474 90.5777C261.318 90.0122 261.284 89.4237 261.37 88.812C261.456 88.2004 261.651 87.6442 261.956 87.1434C262.262 86.637 262.645 86.2102 263.106 85.863C263.573 85.5109 264.09 85.2573 264.655 85.1021C265.22 84.947 265.809 84.9124 266.421 84.9984C267.016 85.082 267.516 85.2896 267.921 85.6212C268.327 85.9473 268.638 86.3457 268.852 86.8164L269.615 81.3873ZM265.43 92.1723C265.923 92.2417 266.372 92.1817 266.777 91.9925C267.182 91.7976 267.515 91.5068 267.775 91.1199C268.041 90.7338 268.209 90.2883 268.28 89.7832C268.352 89.2726 268.313 88.7951 268.164 88.3506C268.015 87.9062 267.772 87.5373 267.436 87.244C267.105 86.9458 266.694 86.762 266.2 86.6926C265.712 86.624 265.248 86.6847 264.809 86.8749C264.376 87.0658 264.01 87.3519 263.71 87.7333C263.416 88.1154 263.234 88.559 263.163 89.064C263.091 89.5746 263.146 90.0546 263.329 90.5037C263.519 90.9481 263.795 91.3217 264.159 91.6246C264.529 91.9227 264.953 92.1052 265.43 92.1723ZM274.041 95.0478C273.602 94.9574 273.182 94.8069 272.783 94.5962C272.383 94.3856 272.042 94.1287 271.758 93.8256C271.481 93.5177 271.289 93.1759 271.181 92.8003L272.761 92.37C272.813 92.5318 272.918 92.6982 273.077 92.8694C273.242 93.0413 273.441 93.1923 273.674 93.3224C273.909 93.4469 274.16 93.528 274.43 93.5659C274.694 93.603 274.943 93.6008 275.178 93.5594C275.419 93.5132 275.623 93.4217 275.791 93.2851C275.959 93.1485 276.059 92.9708 276.089 92.7519C276.124 92.505 276.067 92.3024 275.917 92.1441C275.774 91.9809 275.584 91.8455 275.348 91.7379C275.111 91.6302 274.874 91.5254 274.637 91.4233C274.104 91.2226 273.623 90.9833 273.192 90.7053C272.769 90.4226 272.446 90.094 272.224 89.7194C272.002 89.3393 271.927 88.9023 271.996 88.4085C272.072 87.8698 272.283 87.4245 272.63 87.0727C272.978 86.7153 273.402 86.4631 273.904 86.3161C274.411 86.1699 274.933 86.1347 275.472 86.2104C276.146 86.305 276.743 86.5349 277.264 86.8999C277.785 87.265 278.159 87.7181 278.386 88.2593L276.881 88.889C276.821 88.7089 276.716 88.5396 276.566 88.3813C276.417 88.2229 276.241 88.0895 276.039 87.981C275.837 87.8668 275.622 87.788 275.394 87.7444C275.109 87.693 274.838 87.6892 274.58 87.733C274.329 87.7721 274.118 87.8627 273.95 88.0049C273.781 88.1472 273.679 88.3445 273.643 88.5971C273.609 88.844 273.669 89.0414 273.826 89.1893C273.983 89.3316 274.189 89.4577 274.442 89.5677C274.702 89.6785 274.965 89.7986 275.233 89.9278C275.71 90.1551 276.152 90.4145 276.557 90.7061C276.963 90.9921 277.278 91.3196 277.501 91.6885C277.723 92.0574 277.796 92.4796 277.717 92.955C277.643 93.4825 277.418 93.9229 277.042 94.2764C276.672 94.6307 276.22 94.8761 275.686 95.0128C275.151 95.1494 274.603 95.1611 274.041 95.0478Z" fill="#1C1C1C"/>
<rect x="46.7782" y="80.8189" width="279.6" height="34.6001" rx="3.3" transform="rotate(8 46.7782 80.8189)" fill="white"/>
<rect x="46.7782" y="80.8189" width="279.6" height="34.6001" rx="3.3" transform="rotate(8 46.7782 80.8189)" stroke="#F2F2F2" stroke-width="1.4"/>
<path fill-rule="evenodd" clip-rule="evenodd" d="M61.1727 94.3164C60.6635 94.7906 59.9097 95.1151 59.2238 94.9572C59.2387 94.2214 59.6867 93.5004 60.1513 93.0814C60.6626 92.5921 61.4773 92.3069 62.0964 92.3632C62.0628 93.1271 61.6768 93.8262 61.1727 94.3164ZM61.6558 95.4453C61.0492 95.3226 60.4589 95.4725 59.9821 95.5937C59.6752 95.6716 59.4154 95.7376 59.2285 95.7113C59.0187 95.6819 58.7777 95.54 58.5071 95.3807C58.1526 95.172 57.7473 94.9333 57.2948 94.8785C56.2583 94.7482 55.2104 95.2235 54.5457 96.1217C53.1873 97.9139 53.5856 100.906 54.412 102.636C54.8154 103.493 55.3095 104.438 56.1239 104.522C56.4823 104.558 56.7546 104.481 57.0365 104.401C57.3609 104.309 57.698 104.213 58.1935 104.283C58.6718 104.35 58.9561 104.529 59.229 104.701C59.4884 104.865 59.7376 105.022 60.1335 105.07C60.9747 105.173 61.6108 104.478 62.2346 103.767C62.9071 103.003 63.266 102.216 63.3205 102.097L63.3269 102.083C63.3261 102.082 63.3197 102.078 63.3085 102.07C63.1356 101.956 61.8144 101.081 62.0554 99.2678C62.2555 97.7454 63.5006 97.1348 63.6966 97.0387C63.7086 97.0328 63.7166 97.0289 63.7203 97.0267C63.1537 95.8095 62.0422 95.5303 61.6558 95.4453ZM66.1202 105.827L67.7718 94.0756L72.0034 94.6703C74.188 94.9773 75.494 96.7597 75.1719 99.0511C74.8499 101.343 73.0722 102.707 70.8587 102.396L68.4354 102.055L67.8708 106.073L66.1202 105.827ZM69.3061 95.8591L71.3243 96.1428C72.8434 96.3563 73.5928 97.3225 73.3841 98.8074C73.1754 100.292 72.1877 101.022 70.6614 100.808L68.6504 100.525L69.3061 95.8591ZM80.0407 106.346C79.4485 107.2 78.347 107.637 77.2474 107.483C75.6199 107.254 74.6261 106.084 74.8401 104.562C75.052 103.054 76.2733 102.342 78.324 102.499L80.5276 102.671L80.6187 102.023C80.7533 101.065 80.226 100.461 79.1554 100.31C78.2729 100.186 77.5624 100.571 77.3305 101.276L75.7535 101.054C76.0181 99.5389 77.5483 98.624 79.4073 98.8853C81.411 99.1669 82.5595 100.443 82.3211 102.139L81.4991 107.988L79.8787 107.76L80.0768 106.351L80.0407 106.346ZM77.9135 106.154C76.9804 106.023 76.4529 105.473 76.5535 104.756C76.6574 104.018 77.2892 103.668 78.391 103.754L80.3549 103.899L80.2616 104.563C80.107 105.663 79.0998 106.321 77.9135 106.154ZM86.809 109.203C85.8182 111.163 84.9199 111.728 83.2128 111.488C83.0826 111.47 82.6507 111.394 82.5536 111.35L82.7517 109.94C82.8581 109.97 83.1236 110.023 83.2611 110.042C84.0351 110.151 84.5168 109.873 84.9084 109.029L85.1406 108.531L83.3772 99.5587L85.2073 99.8159L86.2932 107.048L86.3294 107.053L89.3666 100.4L91.1461 100.651L86.809 109.203Z" fill="black"/>
<rect x="40.9329" y="122.41" width="279.6" height="35.267" rx="3.3" transform="rotate(8 40.9329 122.41)" fill="white"/>
<rect x="40.9329" y="122.41" width="279.6" height="35.267" rx="3.3" transform="rotate(8 40.9329 122.41)" stroke="#F2F2F2" stroke-width="1.4"/>
<path d="M83.4275 148.586L83.4556 148.59L86.6214 143.045L88.2654 143.276L81.5546 154.342L79.9947 154.122L82.4537 150.267L80.2117 142.144L81.8567 142.376L83.4275 148.586ZM76.3771 141.333C77.4955 141.491 78.3364 141.92 78.9005 142.612C79.4644 143.304 79.6661 144.188 79.5174 145.246L78.8085 150.29L77.3608 150.087L77.5204 148.951L77.4546 148.942C76.6937 149.788 75.8009 150.14 74.7577 149.993C73.8745 149.869 73.1601 149.496 72.6431 148.879C72.1301 148.302 71.9047 147.521 72.032 146.751C72.1513 145.903 72.5643 145.28 73.2647 144.863C73.9653 144.446 74.8462 144.317 75.8985 144.465C76.8007 144.592 77.5101 144.867 78.0472 145.273L78.0968 144.92C78.1705 144.396 78.0149 143.868 77.6686 143.469C77.3154 143.05 76.826 142.777 76.2903 142.702C75.4447 142.583 74.7262 142.852 74.1357 143.507L72.9204 142.472C73.7833 141.514 74.9394 141.131 76.3771 141.333ZM69.7004 136.817C70.6709 136.934 71.5585 137.439 72.148 138.221C73.3376 139.711 73.1154 141.906 71.6311 143.127L71.4378 143.274C70.638 143.852 69.725 144.074 68.7008 143.93L66.201 143.579L65.5202 148.423L64.0067 148.21L65.6871 136.253L69.7004 136.817ZM75.9602 145.738C75.3493 145.652 74.8109 145.732 74.3558 145.969C73.9101 146.208 73.6508 146.551 73.5878 146.999C73.5316 147.4 73.6673 147.798 73.9452 148.07C74.2459 148.385 74.6397 148.586 75.0639 148.636C75.7028 148.725 76.35 148.554 76.8654 148.16C77.4304 147.753 77.7637 147.226 77.8549 146.578C77.4385 146.131 76.8075 145.847 75.9602 145.738ZM66.4073 142.111L68.9448 142.467C69.506 142.566 70.0831 142.413 70.5261 142.057C71.4321 141.339 71.6013 140.002 70.8963 139.086C70.5646 138.65 70.0769 138.368 69.5317 138.291L66.9941 137.935L66.4073 142.111Z" fill="#3C4043"/>
<path d="M61.1244 141.796C61.1901 141.328 61.2181 140.856 61.2073 140.388L54.8262 139.491L54.455 142.132L58.1107 142.646C57.8411 143.473 57.2452 144.167 56.464 144.544L56.2228 146.26L58.4031 146.566C59.8487 145.554 60.8296 143.893 61.1244 141.796Z" fill="#4285F4"/>
<path d="M53.6875 147.595C55.5106 147.852 57.1376 147.458 58.4034 146.566L56.4643 144.544C55.7945 144.877 54.9809 145.006 54.0694 144.878C52.3026 144.63 50.9785 143.209 50.6706 141.513L48.4246 141.197L48.1753 142.97C48.9962 145.448 51.1313 147.236 53.6875 147.595Z" fill="#34A853"/>
<path d="M50.6708 141.513C50.5081 140.625 50.6381 139.7 51.0407 138.881L51.2886 137.117L49.0421 136.802C47.802 138.601 47.4804 140.889 48.1765 142.961L50.6708 141.513Z" fill="#FBBC04"/>
<path d="M55.2352 136.583C56.2058 136.7 57.0839 137.203 57.6842 137.977L59.8962 136.285C58.8286 134.949 57.3019 134.083 55.6171 133.866C53.0609 133.507 50.5145 134.646 49.0423 136.802L51.0391 138.891C51.804 137.336 53.4684 136.335 55.2352 136.583Z" fill="#EA4335"/>
<rect x="35.2501" y="165.001" width="279" height="42" rx="3" transform="rotate(8 35.2501 165.001)" fill="#F1F1F2"/>
<rect x="35.2501" y="165.001" width="279" height="42" rx="3" transform="rotate(8 35.2501 165.001)" stroke="#F2F2F2" stroke-width="2"/>
<rect x="43.3355" y="175.73" width="33" height="23" rx="3.5" transform="rotate(8 43.3355 175.73)" fill="white"/>
<rect x="43.3355" y="175.73" width="33" height="23" rx="3.5" transform="rotate(8 43.3355 175.73)" stroke="#F2F4F7"/>
<path d="M63.5771 183.15C67.2855 183.671 69.8749 187.064 69.3599 190.729C68.8448 194.393 65.4205 196.941 61.7121 196.42C60.0495 196.186 58.6134 195.374 57.5797 194.22C56.268 195.044 54.6634 195.429 53.0009 195.196C49.2927 194.674 46.7042 191.281 47.2191 187.617C47.734 183.953 51.1576 181.405 54.8658 181.926C56.5282 182.159 57.9648 182.971 58.9984 184.125C60.3101 183.301 61.9146 182.916 63.5771 183.15Z" fill="#ED0006"/>
<path d="M63.5774 183.15C67.2857 183.671 69.8742 187.064 69.3592 190.729C68.8441 194.393 65.4207 196.941 61.7124 196.42C60.0498 196.186 58.6136 195.374 57.5799 194.22C59.1939 193.206 60.3647 191.526 60.6489 189.504C60.933 187.483 60.2709 185.545 58.9987 184.125C60.3103 183.301 61.9149 182.916 63.5774 183.15Z" fill="#F9A000"/>
<path d="M58.9982 184.125C60.2705 185.544 60.9325 187.483 60.6483 189.504C60.3642 191.526 59.1936 193.206 57.5794 194.22C56.3076 192.8 55.6461 190.863 55.9301 188.841C56.2142 186.82 57.3842 185.139 58.9982 184.125Z" fill="#FF5E00"/>
<rect x="84.9268" y="181.576" width="33" height="23" rx="3.5" transform="rotate(8 84.9268 181.576)" fill="white"/>
<rect x="84.9268" y="181.576" width="33" height="23" rx="3.5" transform="rotate(8 84.9268 181.576)" stroke="#F2F4F7"/>
<path fill-rule="evenodd" clip-rule="evenodd" d="M92.9398 198.211L90.9001 197.924L90.2148 191.703C90.181 191.416 90.0612 191.15 89.8506 191.003C89.3254 190.634 88.7343 190.316 88.0704 190.105L88.1029 189.873L91.3886 190.335C91.8421 190.399 92.1334 190.794 92.1334 191.206L92.3181 195.65L95.0712 190.853L97.0542 191.131L92.9398 198.211ZM97.1326 198.8L95.2062 198.53L97.8479 191.243L99.7742 191.514L97.1326 198.8ZM101.974 193.944C102.088 193.548 102.46 193.364 102.857 193.42C103.489 193.45 104.152 193.661 104.678 194.029L105.245 192.46C104.711 192.149 104.104 191.946 103.538 191.866C101.668 191.603 100.162 192.452 99.9586 193.896C99.8043 194.994 100.687 195.706 101.318 196.149C102.006 196.599 102.256 196.87 102.151 197.209C102.078 197.728 101.479 197.88 100.913 197.8C100.233 197.705 99.5767 197.436 98.9948 197.059L98.4273 198.629C99.0671 199.013 99.7867 199.233 100.467 199.328C102.555 199.68 104.004 198.824 104.223 197.264C104.499 195.3 101.852 194.81 101.974 193.944ZM110.616 200.695L110.142 192.971L108.499 192.74C108.159 192.692 107.786 192.876 107.624 193.206L103.818 199.74L105.801 200.019L106.351 198.977L108.787 199.319L108.86 200.448L110.616 200.695ZM108.498 194.802L108.666 197.712L107.08 197.489L108.498 194.802Z" fill="#172B85"/>
<rect x="126.518" y="187.421" width="33" height="23" rx="3.5" transform="rotate(8 126.518 187.421)" fill="#1F72CD"/>
<rect x="126.518" y="187.421" width="33" height="23" rx="3.5" transform="rotate(8 126.518 187.421)" stroke="#F2F4F7"/>
<path fill-rule="evenodd" clip-rule="evenodd" d="M130.946 196.122L126.787 202.855L130.558 203.385L131.186 202.307L132.255 202.457L132.562 203.667L136.713 204.25L136.836 203.377L137.083 204.302L139.23 204.604L139.725 203.764L139.6 204.656L148.233 205.869L149.439 204.902L150.265 206.155L154.698 206.787L152.041 202.766L155.708 199.602L151.343 198.988L150.167 199.939L149.369 198.711L139.977 197.391L138.911 199.13L138.346 197.162L134.582 196.633L134.464 197.476L134.164 196.574L130.946 196.122ZM131.532 197.243L133.37 197.502L134.776 202.662L135.46 197.795L137.474 198.078L138.597 201.794L140.575 198.514L142.579 198.796L141.855 203.945L140.636 203.774L141.193 199.737L138.848 203.523L137.758 203.369L136.537 199.083L135.97 203.118L133.462 202.766L133.149 201.544L130.58 201.183L129.943 202.27L128.6 202.081L131.532 197.243ZM148.651 199.649L143.694 198.953L142.971 204.099L147.851 204.785L149.664 203.3L150.941 205.219L152.526 205.442L150.582 202.56L153.249 200.295L151.733 200.082L149.931 201.548L148.651 199.649ZM132.304 198.24L131.169 200.178L132.86 200.416L132.304 198.24ZM144.636 201.131L144.768 200.191L144.769 200.19L147.862 200.625L149 202.318L147.378 203.631L144.345 203.205L144.489 202.178L147.194 202.559L147.341 201.511L144.636 201.131Z" fill="white"/>
<rect x="168.109" y="193.266" width="33" height="23" rx="3.5" transform="rotate(8 168.109 193.266)" fill="white"/>
<rect x="168.109" y="193.266" width="33" height="23" rx="3.5" transform="rotate(8 168.109 193.266)" stroke="#F2F4F7"/>
<path d="M178.346 217.426L197.962 214.376L197.579 217.1C197.349 218.74 195.832 219.884 194.191 219.653L178.346 217.426Z" fill="#FD6020"/>
<path d="M180.462 203.698C180.825 203.749 181.231 203.861 181.512 204.117L181.362 205.181C181.148 204.825 180.764 204.555 180.35 204.496C179.514 204.433 178.738 205.083 178.67 205.942L178.655 206.048C178.535 206.899 179.118 207.633 179.946 207.749C180.36 207.807 180.752 207.645 181.056 207.363L180.906 208.426C180.521 208.535 180.144 208.591 179.73 208.532C178.437 208.351 177.558 207.088 177.745 205.757C177.939 204.374 179.132 203.402 180.462 203.698ZM188.14 208.032L189.83 205.014L190.761 205.145L188.166 209.718L187.7 209.653L186.466 204.541L187.398 204.672L188.14 208.032ZM176.337 203.009C176.803 203.075 177.239 203.354 177.556 203.724L177 204.297C176.823 204.055 176.587 203.859 176.328 203.823C176.025 203.726 175.728 203.955 175.632 204.267C175.595 204.533 175.735 204.661 176.223 204.947C177.198 205.518 177.412 205.873 177.374 206.519L177.352 206.679C177.181 207.523 176.418 208.067 175.597 207.897C174.976 207.81 174.399 207.404 174.171 206.775L174.823 206.269C174.926 206.663 175.251 206.981 175.665 207.039L175.717 207.046C176.027 207.09 176.382 206.814 176.435 206.441C176.464 206.229 176.384 206.054 176.244 205.926C176.052 205.791 175.859 205.655 175.659 205.573C174.869 205.191 174.663 204.782 174.753 204.144L174.76 204.09C174.917 203.353 175.62 202.854 176.337 203.009ZM170.94 202.359C172.174 202.587 173.007 203.79 172.776 205.059C172.679 205.751 172.279 206.345 171.694 206.751C171.176 207.058 170.577 207.191 170.015 207.058L168.721 206.876L169.386 202.141L170.94 202.359ZM173.69 207.575L172.81 207.451L173.475 202.716L174.355 202.839L173.69 207.575ZM193.547 206.351L191.943 206.126L191.794 207.189L193.347 207.408L193.235 208.206L191.681 207.987L191.502 209.265L193.106 209.49L192.994 210.288L190.511 209.939L191.176 205.203L193.66 205.552L193.547 206.351ZM195.523 205.814C196.558 205.96 197.06 206.519 196.933 207.423C196.888 208.121 196.34 208.642 195.704 208.661L196.825 210.825L195.738 210.673L194.816 208.591L194.713 208.576L194.444 210.491L193.564 210.367L194.229 205.632L195.523 205.814ZM170.413 203.099L170.154 203.063L169.713 206.202L169.971 206.238C170.378 206.349 170.866 206.255 171.214 206.033C171.569 205.757 171.785 205.354 171.852 204.875C171.912 204.45 171.816 204.001 171.551 203.638C171.278 203.329 170.834 203.104 170.413 203.099ZM194.803 207.938L195.061 207.974C195.63 208.054 195.927 207.824 195.994 207.345C196.054 206.92 195.832 206.617 195.263 206.537L195.005 206.501L194.803 207.938Z" fill="black"/>
<path fill-rule="evenodd" clip-rule="evenodd" d="M184.204 204.112C182.91 203.93 181.674 204.841 181.479 206.225C181.292 207.555 182.171 208.818 183.509 209.06C184.847 209.302 186.039 208.33 186.285 206.954C186.428 205.564 185.55 204.301 184.204 204.112V204.112Z" fill="#FD6020"/>
</g>
<defs>
<filter id="filter0_d_2382_1837" x="-0.517273" y="-0.517334" width="361.551" height="276.159" filterUnits="userSpaceOnUse" color-interpolation-filters="sRGB">
<feFlood flood-opacity="0" result="BackgroundImageFix"/>
<feColorMatrix in="SourceAlpha" type="matrix" values="0 0 0 0 0 0 0 0 0 0 0 0 0 0 0 0 0 0 127 0" result="hardAlpha"/>
<feOffset dy="2"/>
<feGaussianBlur stdDeviation="5.5"/>
<feComposite in2="hardAlpha" operator="out"/>
<feColorMatrix type="matrix" values="0 0 0 0 0 0 0 0 0 0 0 0 0 0 0 0 0 0 0.25 0"/>
<feBlend mode="normal" in2="BackgroundImageFix" result="effect1_dropShadow_2382_1837"/>
<feBlend mode="normal" in="SourceGraphic" in2="effect1_dropShadow_2382_1837" result="shape"/>
</filter>
</defs>
</svg>
