<svg width="44" height="44" viewBox="0 0 44 44" fill="none" xmlns="http://www.w3.org/2000/svg">
<rect width="44" height="44" rx="2" fill="url(#paint0_linear_2305_10253)"/>
<path d="M31 19.2002C31.5523 19.2002 32 19.6479 32 20.2002V22L31.9873 22.5146C31.7193 27.7982 27.3501 32 22 32L21.4854 31.9863C16.3723 31.7271 12.2721 27.6277 12.0127 22.5146L12 22V20.2002C12 19.6479 12.4477 19.2002 13 19.2002C13.5523 19.2002 14 19.6479 14 20.2002V22C14.0002 26.4181 17.5819 30 22 30C26.4182 30 29.9998 26.4181 30 22V20.2002C30 19.6479 30.4477 19.2002 31 19.2002ZM22 12C25.3137 12 28 14.6863 28 18V22C28 25.3137 25.3137 28 22 28C18.6863 28 16 25.3137 16 22V18C16 14.6863 18.6863 12 22 12ZM22 14C19.7909 14 18 15.7909 18 18V22C18 24.2091 19.7909 26 22 26C24.2091 26 26 24.2091 26 22V18C26 15.7909 24.2091 14 22 14Z" fill="#F8F8FF"/>
<defs>
<linearGradient id="paint0_linear_2305_10253" x1="38.5437" y1="-2.2842e-07" x2="19.6745" y2="41.4574" gradientUnits="userSpaceOnUse">
<stop stop-color="#3A8DFF"/>
<stop offset="1" stop-color="#8C33FF"/>
</linearGradient>
</defs>
</svg>
